<?xml version="1.0" standalone="no"?>
<!DOCTYPE svg PUBLIC "-//W3C//DTD SVG 20010904//EN"
 "http://www.w3.org/TR/2001/REC-SVG-20010904/DTD/svg10.dtd">
<svg version="1.0" xmlns="http://www.w3.org/2000/svg"
 width="487.000000pt" height="148.000000pt" viewBox="0 0 487.000000 148.000000"
 preserveAspectRatio="xMidYMid meet">
<metadata>
Created by potrace 1.16, written by Peter Selinger 2001-2019
</metadata>
<g transform="translate(0.000000,148.000000) scale(0.100000,-0.100000)"
fill="#000000" stroke="none">
<path d="M1827 1435 c-16 -14 -32 -23 -36 -21 -4 3 -28 -16 -52 -42 l-44 -47
50 45 50 45 -49 -52 c-27 -29 -53 -50 -58 -47 -4 3 -5 -1 -3 -8 3 -8 -7 -25
-22 -38 l-28 -25 25 30 25 30 -27 -24 c-15 -13 -25 -28 -22 -32 3 -5 -12 -26
-33 -47 -37 -37 -38 -37 -8 -2 l30 35 -37 -34 c-21 -19 -35 -38 -31 -44 7 -12
-98 -118 -110 -110 -6 4 -7 1 -2 -6 5 -9 -13 -33 -51 -70 -33 -31 -50 -49 -39
-41 11 8 -16 -21 -61 -65 -44 -44 -55 -58 -25 -30 l56 50 -55 -57 -55 -58
-102 8 c-63 5 -99 4 -96 -2 4 -5 -1 -7 -11 -3 -9 4 -15 3 -12 -2 6 -10 -18
-34 -26 -26 -2 3 -2 -14 1 -38 6 -41 7 -42 46 -42 22 0 60 3 84 7 29 4 40 3
30 -3 -7 -5 -30 -9 -49 -10 -28 0 -31 -2 -15 -8 11 -5 24 -6 28 -4 5 3 4 -4
-3 -17 -6 -12 -17 -19 -25 -17 -7 3 -12 -1 -11 -11 0 -10 -6 -16 -16 -16 -9 1
-36 -19 -60 -44 -23 -25 -37 -41 -29 -37 9 5 12 3 9 -6 -3 -8 -12 -13 -21 -13
-9 1 -14 -2 -11 -8 7 -10 -14 -38 -28 -38 -5 0 -6 6 -3 13 4 6 -33 -29 -81
-79 -49 -50 -69 -67 -44 -39 28 31 18 24 -25 -19 -38 -39 -65 -64 -60 -56 6 9
-1 4 -15 -10 -14 -14 -23 -21 -20 -15 3 6 -5 -1 -17 -15 -13 -14 -28 -25 -35
-26 -26 -2 -48 -16 -41 -27 4 -6 0 -8 -10 -4 -9 3 -19 1 -23 -5 -5 -7 -2 -8 7
-4 8 4 5 0 -6 -8 -11 -9 -25 -14 -33 -11 -7 2 -11 1 -8 -4 8 -12 -50 -34 -89
-35 -18 -1 -31 -4 -28 -8 2 -5 -23 -8 -57 -8 -38 0 -59 4 -55 10 3 5 0 7 -9 4
-21 -8 -54 13 -71 46 -19 37 -22 236 -3 224 7 -4 8 -3 4 5 -4 6 -4 25 -1 43 5
23 9 27 16 17 6 -9 7 -3 3 17 -4 19 -1 41 7 55 7 13 14 27 15 32 1 4 3 9 4 12
1 3 3 11 4 18 1 6 7 11 14 10 7 -2 9 4 5 14 -4 11 -3 14 5 9 8 -5 10 -1 5 10
-4 12 -3 15 5 10 8 -5 10 -1 5 10 -5 13 -3 15 7 9 8 -5 11 -4 7 3 -8 12 2 44
12 37 4 -2 17 17 29 43 13 26 16 38 7 28 -8 -11 -15 -24 -15 -30 0 -5 -3 -7
-6 -3 -7 6 38 89 64 119 8 10 19 15 23 12 5 -3 6 1 4 8 -3 8 33 51 87 104 104
101 141 129 159 118 7 -4 9 -3 5 4 -9 14 31 35 55 29 12 -3 17 -1 12 6 -4 6 2
8 15 5 12 -4 20 -2 16 3 -3 5 15 9 39 9 35 0 48 -5 61 -22 9 -13 14 -17 10 -9
-5 9 -3 12 4 7 6 -4 8 -14 5 -23 -4 -10 -2 -14 4 -10 6 4 14 0 17 -9 10 -25 7
-136 -3 -130 -5 4 -7 -4 -3 -16 3 -13 1 -19 -5 -15 -7 5 -9 0 -6 -12 3 -12 -6
-30 -26 -50 -33 -33 -39 -46 -18 -36 6 4 5 1 -4 -7 -18 -15 -20 -79 -2 -85 7
-3 22 7 34 21 12 14 27 23 32 19 6 -3 7 -2 4 4 -8 13 31 75 43 68 6 -4 7 1 3
11 -4 12 -3 15 5 10 8 -5 10 -1 5 10 -4 12 -3 15 5 10 8 -5 10 -1 5 10 -4 11
-3 15 4 11 7 -5 9 1 5 15 -3 13 -1 19 5 15 6 -4 8 4 5 20 -3 14 -1 23 4 20 5
-3 9 34 9 83 0 51 -4 86 -9 82 -5 -3 -7 2 -3 11 3 8 -1 21 -9 27 -8 7 -14 9
-14 6 0 -4 -13 1 -29 10 -17 10 -28 21 -26 24 3 4 -30 8 -72 9 -42 1 -81 5
-86 8 -6 3 -7 1 -3 -5 3 -6 -6 -13 -24 -17 -17 -4 -51 -18 -75 -32 -25 -13
-50 -21 -57 -17 -7 4 -10 4 -6 -1 11 -11 -29 -38 -44 -29 -7 5 -8 3 -3 -6 6
-10 4 -12 -8 -7 -9 3 -19 1 -23 -5 -5 -7 -2 -8 6 -3 9 6 11 4 6 -4 -5 -7 -15
-10 -23 -7 -8 3 -12 2 -9 -3 3 -4 -9 -21 -26 -37 -18 -16 -28 -22 -23 -14 6 9
2 7 -9 -5 -10 -11 -23 -19 -28 -17 -5 1 -7 -1 -4 -6 6 -9 -93 -107 -108 -107
-6 0 -11 -6 -11 -13 0 -17 -55 -83 -64 -77 -5 2 -8 -3 -7 -13 0 -9 -4 -16 -11
-15 -7 2 -10 -3 -7 -11 3 -8 0 -17 -7 -22 -8 -5 -10 -3 -4 6 5 8 4 11 -3 6 -6
-4 -8 -14 -5 -23 4 -11 3 -14 -5 -9 -8 5 -10 1 -5 -10 4 -12 3 -15 -5 -10 -8
5 -10 1 -5 -10 5 -13 3 -15 -7 -9 -8 5 -11 4 -6 -3 9 -14 -14 -63 -27 -55 -6
3 -7 1 -3 -5 4 -6 1 -22 -5 -34 -7 -13 -15 -36 -19 -53 -4 -16 -11 -29 -17
-28 -6 1 -9 -7 -5 -19 3 -13 1 -19 -5 -15 -6 4 -8 -4 -5 -20 3 -14 1 -23 -4
-20 -5 3 -8 -16 -6 -41 2 -26 -1 -42 -5 -35 -4 6 -8 -19 -8 -57 0 -37 3 -66 7
-63 5 2 8 -6 8 -19 0 -13 7 -36 15 -52 18 -35 19 -39 3 -31 -7 4 -2 -3 12 -15
14 -12 18 -19 10 -15 -8 4 1 -7 20 -25 19 -18 26 -26 15 -19 -17 11 -18 11 -8
-1 7 -7 22 -15 34 -17 11 -2 32 -10 47 -19 26 -15 23 -14 -23 1 -13 4 -11 1 5
-8 30 -17 283 -21 273 -4 -4 6 3 8 15 5 14 -4 20 -2 15 5 -4 7 0 8 11 4 11 -5
15 -3 10 5 -5 8 -2 9 10 5 11 -5 15 -3 10 5 -5 8 -2 9 10 5 9 -4 15 -3 12 2
-6 10 71 54 82 47 5 -3 18 1 28 10 18 14 17 14 -6 4 -24 -11 -24 -11 -5 5 34
28 78 49 70 33 -4 -7 5 1 20 17 14 17 24 23 20 15 -4 -8 1 -6 10 5 9 11 21 19
26 17 6 -1 8 2 5 7 -3 5 2 15 11 22 14 12 16 12 8 -1 -5 -8 8 2 28 23 20 22
40 36 45 33 5 -3 24 11 43 32 l34 37 -35 -30 c-35 -30 -35 -29 2 8 21 21 42
36 46 33 5 -3 35 23 68 57 l59 62 -60 -55 -61 -55 63 63 c34 35 66 61 71 58 5
-3 33 21 63 52 l54 57 -60 -55 -60 -55 64 67 c36 37 69 64 74 61 6 -4 7 -1 3
6 -5 7 0 21 10 32 14 16 31 19 95 19 l77 0 -21 -65 c-13 -41 -24 -60 -29 -52
-5 8 -8 5 -6 -8 2 -36 -2 -56 -11 -51 -5 4 -7 -3 -4 -14 3 -11 0 -27 -7 -35
-7 -9 -10 -18 -7 -22 4 -3 2 -13 -5 -20 -7 -9 -14 -62 -16 -129 -4 -94 -2
-118 11 -132 9 -9 16 -21 16 -27 1 -5 25 -9 53 -9 72 2 107 7 101 17 -4 7 12
11 30 8 5 -1 6 3 2 9 -3 5 -1 18 5 27 10 16 11 16 5 -2 -5 -16 -4 -17 6 -8 9
9 8 18 -5 38 -13 20 -20 23 -35 16 -10 -6 -22 -7 -26 -3 -3 4 -5 1 -3 -6 2 -8
-5 -19 -15 -25 -15 -10 -21 -8 -33 7 -15 21 -20 81 -5 72 4 -3 6 7 4 22 -2 20
-1 22 5 9 5 -12 8 0 8 35 0 29 7 64 15 78 7 14 15 30 15 35 5 29 17 54 25 49
5 -3 6 3 2 12 -4 12 -3 15 5 10 8 -5 10 -1 5 10 -4 12 -3 15 5 10 8 -5 10 -2
6 9 -7 18 15 77 26 70 5 -3 6 5 2 17 -3 13 -1 19 5 15 7 -5 9 0 6 13 -5 20 0
20 299 20 l304 0 -5 -42 c-2 -24 -11 -49 -20 -56 -9 -7 -10 -11 -3 -7 7 4 4
-12 -10 -39 -12 -25 -25 -43 -30 -40 -4 3 -5 -1 -3 -8 3 -8 -2 -22 -11 -33 -8
-11 -12 -14 -8 -6 5 9 3 12 -5 7 -6 -4 -9 -11 -6 -16 7 -12 -16 -60 -26 -54
-5 3 -6 -1 -3 -9 5 -13 -22 -44 -35 -40 -3 1 -6 -7 -5 -18 0 -11 -3 -16 -8
-11 -5 5 -8 66 -6 135 2 74 -1 123 -6 119 -5 -3 -6 2 -3 12 4 11 3 15 -4 11
-6 -4 -9 0 -7 11 2 10 -1 19 -7 19 -16 1 -36 16 -31 24 3 4 -36 8 -85 8 -49 0
-87 -2 -85 -5 8 -7 -37 -38 -49 -34 -5 2 0 -7 13 -20 12 -14 20 -27 17 -30 -3
-3 5 -12 17 -20 24 -16 59 -10 73 12 5 8 11 7 23 -2 13 -11 15 -10 9 5 -5 12
-1 17 13 17 18 0 18 -1 -3 -34 -12 -18 -24 -32 -27 -31 -3 2 -5 -25 -5 -60 0
-36 4 -61 9 -57 5 3 6 -2 3 -12 -5 -11 -3 -15 5 -10 8 5 9 1 4 -12 -4 -10 -4
-15 0 -11 8 8 55 -53 49 -63 -3 -4 3 -14 13 -23 17 -15 21 -17 43 -17 5 0 7
-6 3 -13 -4 -6 -4 -9 1 -5 4 4 23 -2 42 -13 31 -20 35 -20 52 -5 10 9 21 13
25 9 4 -4 4 0 1 9 -4 9 -1 19 6 24 8 5 10 3 4 -6 -5 -8 -4 -11 3 -6 6 4 8 14
5 23 -4 10 -2 14 4 10 6 -4 14 0 17 9 3 8 2 12 -4 9 -6 -3 -7 1 -4 9 3 9 10
14 14 11 4 -3 11 2 14 11 3 9 2 12 -5 8 -6 -3 -5 3 2 14 7 12 16 19 20 16 4
-2 6 4 5 14 0 9 4 16 11 15 8 -2 10 4 6 14 -4 11 -3 14 5 9 8 -5 10 -1 5 10
-4 12 -3 15 5 10 8 -5 10 -1 5 10 -4 12 -3 15 5 10 7 -4 10 -2 7 6 -3 8 2 22
11 33 8 11 12 14 8 6 -5 -9 -3 -12 5 -7 6 4 9 11 6 16 -7 11 5 41 15 35 4 -3
11 2 14 11 4 10 2 13 -7 8 -9 -5 -9 -4 1 7 6 7 12 37 12 66 l0 53 158 -1 c86
-1 148 -4 138 -6 -11 -3 -14 -8 -8 -12 16 -9 18 -97 3 -115 -7 -9 -10 -23 -7
-32 5 -13 13 -15 39 -9 17 4 43 7 57 6 17 0 21 2 12 8 -21 13 21 21 109 21 57
0 80 -4 89 -15 17 -20 10 -26 -20 -18 -20 5 -21 7 -7 12 9 4 -21 6 -67 6 -46
0 -80 -3 -74 -6 5 -4 -3 -10 -19 -13 -15 -4 -46 -23 -69 -41 -23 -19 -45 -31
-49 -27 -5 4 -5 2 -2 -4 7 -12 -28 -46 -38 -36 -3 4 -3 -2 1 -12 4 -11 3 -17
-2 -14 -5 4 -9 -11 -9 -32 0 -21 4 -36 9 -32 5 3 7 -2 3 -10 -3 -10 3 -24 16
-35 l22 -18 -19 25 c-11 14 -2 8 18 -13 42 -43 99 -67 160 -67 46 0 120 20
137 37 8 8 20 5 46 -13 43 -29 59 -30 73 -5 13 26 13 318 0 326 -6 4 -8 10 -5
15 3 5 -12 27 -33 49 -21 23 -37 42 -36 44 10 10 -169 7 -181 -3 -18 -15 -35
-5 -35 21 0 19 13 19 603 19 l604 0 11 -25 c15 -32 15 -45 2 -45 -5 0 -7 6 -5
13 6 15 -18 18 -147 21 -53 1 -94 -2 -92 -6 3 -4 -9 -14 -26 -23 -16 -8 -30
-12 -30 -9 0 4 -9 -1 -19 -10 -15 -14 -19 -31 -19 -92 0 -41 4 -74 10 -74 5 0
7 -4 4 -9 -3 -4 7 -19 22 -32 l27 -24 -24 28 c-14 15 -20 27 -15 27 6 0 21
-15 34 -33 13 -17 19 -29 15 -24 -5 4 -19 -3 -33 -15 -13 -13 -27 -23 -30 -23
-4 0 -6 -3 -5 -6 1 -4 3 -23 5 -43 1 -20 8 -42 15 -48 7 -6 13 -7 13 -3 0 4
11 0 25 -9 14 -10 49 -20 78 -23 58 -6 81 -19 73 -40 -3 -8 -2 -12 3 -9 5 3
14 -1 21 -9 7 -8 9 -15 4 -15 -4 0 10 -13 32 -30 44 -33 103 -40 124 -15 7 8
16 13 19 10 4 -2 8 2 8 10 0 8 -5 11 -10 8 -6 -4 -8 0 -4 10 4 10 2 16 -5 14
-6 -1 -18 12 -27 28 -12 21 -27 31 -47 33 -39 5 -53 19 -15 17 16 -1 29 2 28
7 -1 5 18 21 43 35 25 13 50 30 55 35 7 8 6 9 -2 4 -14 -8 -17 5 -5 19 13 16
34 86 28 92 -3 4 -6 -1 -6 -10 0 -9 -4 -17 -10 -17 -5 0 -10 6 -10 14 0 8 -3
22 -7 32 -5 13 -3 15 8 9 8 -5 6 1 -5 13 -10 12 -21 21 -25 20 -12 -2 -41 14
-41 24 0 5 5 6 12 2 7 -4 8 -3 4 4 -4 7 -14 12 -22 12 -8 0 -13 -3 -11 -8 3
-4 -22 -5 -54 -4 -33 2 -68 0 -77 -4 -9 -4 -20 -8 -24 -9 -5 -2 -10 -4 -13 -5
-3 -1 -8 -3 -12 -5 -5 -1 -21 -7 -36 -13 -16 -7 -38 -11 -50 -11 -17 1 -15 3
8 9 l30 8 -27 1 c-32 1 -37 21 -11 42 11 10 47 14 127 13 l111 -1 -85 7 -85 6
76 2 c48 1 93 -4 122 -14 72 -24 77 -19 77 81 l0 85 35 0 35 0 0 -214 0 -214
35 -21 c20 -11 47 -24 60 -27 l25 -6 0 106 c0 68 5 118 14 139 14 34 69 91 89
93 33 3 38 5 33 13 -7 12 18 21 55 21 21 0 28 -4 23 -12 -5 -7 -2 -9 9 -5 12
4 14 2 10 -10 -4 -10 -2 -14 4 -10 15 9 23 -16 23 -66 0 -61 -16 -108 -47
-143 -16 -16 -23 -23 -17 -15 24 35 25 44 1 16 -14 -16 -23 -33 -21 -36 2 -4
-3 -12 -11 -19 -21 -18 -19 -29 10 -42 13 -6 22 -14 20 -18 -2 -4 1 -7 8 -8 7
0 21 -3 32 -7 15 -4 30 3 53 24 17 17 36 31 41 31 5 0 8 8 7 18 0 9 4 16 11
15 8 -2 10 4 6 14 -4 11 -3 14 5 9 8 -5 10 -1 5 10 -4 11 -3 15 4 11 7 -5 9 1
6 15 -3 14 -1 18 4 11 4 -6 8 16 8 52 0 35 -4 61 -9 57 -5 -3 -7 5 -4 16 4 14
2 20 -5 15 -7 -4 -8 0 -4 11 5 11 3 15 -5 10 -8 -5 -9 -1 -4 12 4 10 4 15 0
11 -10 -9 -35 13 -28 24 3 5 0 8 -7 7 -7 -2 -13 4 -14 12 0 8 -7 15 -15 15 -8
1 -14 7 -12 15 2 8 1 12 -3 8 -4 -4 -24 2 -45 13 -29 15 -54 19 -103 17 -36
-2 -65 -5 -64 -8 1 -3 -13 -19 -31 -37 -17 -17 -32 -28 -32 -23 0 5 4 11 8 14
5 3 7 19 4 36 -3 24 -1 30 14 31 18 0 18 1 -1 9 -12 5 99 9 271 9 310 1 314 2
314 51 0 49 -4 50 -310 50 l-286 0 3 38 c2 34 1 35 -5 7 -7 -28 -9 -26 -17 25
-9 50 -11 70 -14 108 -1 7 -5 11 -10 8 -11 -7 -23 22 -14 36 3 7 1 8 -5 4 -11
-7 -17 6 -13 27 1 5 -3 6 -8 3 -8 -5 -26 21 -23 35 1 4 -8 15 -19 25 -15 13
-33 17 -82 15 -70 -3 -87 -12 -66 -37 8 -9 13 -20 12 -23 -2 -3 3 -6 10 -6 6
0 12 -6 12 -13 0 -7 11 -22 25 -33 14 -12 19 -18 13 -14 -9 4 -11 1 -7 -9 3
-9 10 -14 14 -11 4 3 11 -2 14 -11 3 -8 2 -12 -4 -9 -6 3 -7 -1 -4 -9 3 -9 11
-13 17 -9 6 4 8 -2 5 -15 -4 -14 -2 -20 4 -15 8 4 9 -5 5 -28 -5 -25 -4 -30 4
-19 8 11 9 6 7 -22 -2 -20 0 -34 4 -32 4 3 8 0 8 -5 0 -8 -370 -11 -1227 -10
-676 0 -1222 3 -1215 6 6 2 10 9 6 14 -3 5 0 9 6 9 6 0 9 4 5 9 -8 14 16 61
28 54 6 -4 7 -1 3 6 -9 14 13 73 24 66 5 -3 6 5 3 17 -4 19 -3 20 6 8 9 -12
10 -10 9 10 -2 31 42 121 55 113 6 -3 7 -1 3 6 -8 13 25 71 52 92 16 13 16 12
1 -6 -9 -11 -19 -27 -23 -35 -4 -8 3 -2 16 15 13 16 24 33 24 37 1 5 2 13 3
19 0 5 7 7 14 3 6 -4 9 -4 5 1 -9 9 20 67 30 61 4 -2 8 28 10 67 2 54 -1 74
-14 88 -21 24 -23 24 -57 -6z m-302 -474 c-3 -5 -1 -12 5 -16 5 -3 10 -1 10 6
0 7 2 10 5 7 9 -8 -37 -98 -47 -92 -4 3 -5 -1 -3 -9 3 -7 -5 -29 -18 -48 -21
-32 -26 -34 -87 -37 l-65 -3 100 101 c94 95 114 112 100 91z m1310 -561 c11
-5 14 -9 7 -9 -7 -1 -10 -6 -7 -11 5 -8 12 -7 23 1 10 6 0 -5 -21 -25 -23 -23
-44 -35 -53 -32 -8 3 -13 2 -10 -3 3 -5 -8 -14 -26 -20 -40 -14 -168 -15 -168
0 0 5 6 7 13 3 8 -5 8 -2 -2 9 -12 15 -9 21 11 18 4 0 5 5 2 13 -3 7 7 21 22
31 14 9 23 12 20 6 -5 -7 -1 -9 8 -5 9 3 14 10 11 14 -3 5 1 11 7 13 21 9 142
6 163 -3z"/>
<path d="M4654 1103 c3 -3 -3 -18 -12 -32 -10 -14 -23 -39 -30 -54 -7 -15 -17
-25 -22 -22 -6 4 -7 -1 -3 -11 4 -12 3 -15 -5 -10 -13 8 -14 6 -16 -36 -1 -15
1 -26 4 -26 13 3 39 -15 34 -23 -3 -5 -2 -9 3 -8 13 3 43 -12 39 -20 -3 -4 4
-7 14 -8 11 -1 32 14 49 32 16 19 31 31 34 27 2 -4 2 -1 0 6 -1 7 3 23 9 35 7
12 13 24 14 27 0 3 4 13 8 23 5 10 3 23 -3 31 -6 7 -9 15 -6 18 3 3 -3 11 -12
19 -16 12 -17 12 -8 -1 6 -9 -1 -4 -14 10 -13 14 -20 18 -15 10 6 -12 5 -13
-7 -4 -15 12 -65 27 -55 17z"/>
<path d="M2397 1078 c2 -5 0 -8 -6 -8 -6 0 -21 -16 -34 -35 -13 -19 -27 -32
-32 -27 -5 4 -5 1 -1 -6 5 -8 1 -21 -9 -32 -23 -25 -12 -67 20 -82 13 -6 22
-14 20 -19 -3 -4 0 -11 6 -15 8 -4 9 -3 5 4 -4 7 -3 12 2 12 12 0 33 -25 27
-32 -3 -2 2 -5 10 -5 8 0 12 3 10 7 -2 4 12 22 33 41 l37 34 -30 -35 -30 -35
31 28 c23 20 30 35 26 49 -3 14 -1 19 5 15 7 -5 9 1 5 15 -3 13 -1 19 5 15 10
-6 7 32 -4 63 -4 8 -5 18 -5 23 1 4 -1 6 -5 5 -13 -2 -43 14 -39 21 2 3 -9 6
-24 6 -15 0 -26 -3 -23 -7z"/>
<path d="M2356 634 c-3 -9 -6 -101 -6 -205 l0 -189 25 -12 c13 -6 22 -15 19
-20 -3 -5 -2 -8 3 -7 4 1 16 -1 26 -6 10 -4 23 -2 32 5 12 10 15 48 15 219 0
148 -3 210 -12 219 -18 18 -95 15 -102 -4z"/>
<path d="M3205 640 c5 -8 -32 -23 -48 -21 -5 1 -6 -3 -3 -8 3 -5 -1 -15 -10
-22 -14 -11 -15 -10 -13 6 6 33 -10 45 -56 45 -30 0 -45 -5 -49 -16 -9 -24 -7
-387 3 -402 4 -8 12 -14 17 -14 17 -1 44 -25 36 -33 -4 -5 4 -2 18 7 23 14 25
22 32 127 5 77 13 125 27 156 11 25 23 45 26 45 3 0 3 -6 -1 -12 -4 -8 -3 -9
2 -5 5 5 9 16 9 25 0 9 8 17 17 17 9 0 20 4 25 9 5 5 2 6 -6 1 -9 -5 -12 -4
-7 3 11 18 76 34 111 28 34 -7 56 -26 63 -55 12 -54 13 -73 5 -84 -6 -6 -13
-25 -17 -40 -4 -15 -11 -25 -16 -22 -5 3 -7 -1 -4 -9 3 -9 -8 -28 -28 -48 -29
-30 -30 -30 -8 -3 l25 30 -30 -27 c-45 -41 -44 -72 5 -103 23 -14 38 -30 35
-35 -4 -6 1 -7 11 -3 13 5 15 3 9 -8 -4 -8 5 -2 22 14 16 15 33 24 37 20 4 -4
4 0 1 9 -4 9 -1 19 6 24 8 5 10 3 4 -6 -5 -8 -4 -11 3 -6 6 4 8 14 5 23 -4 10
-2 14 4 10 5 -4 15 5 22 19 6 14 7 23 2 20 -5 -3 -7 3 -4 15 3 11 9 16 12 11
3 -6 6 34 6 89 0 54 -3 91 -7 81 -6 -15 -7 -14 -7 4 -1 11 -7 26 -13 33 -11
11 -10 13 2 7 8 -4 4 1 -9 12 -14 11 -21 24 -17 31 4 6 4 11 -1 10 -17 -4 -43
14 -36 25 3 6 3 8 -2 4 -10 -9 -47 10 -40 21 2 5 -36 8 -85 8 -49 0 -87 -3
-85 -7z"/>
<path d="M4622 638 c-9 -9 -12 -64 -12 -206 l0 -193 34 -14 c19 -8 41 -22 51
-31 10 -11 20 -13 26 -7 6 6 8 101 7 234 l-3 224 -45 3 c-26 2 -50 -2 -58 -10z"/>
</g>
</svg>
